<?xml version="1.0" encoding="UTF-8" standalone="no"?>
<svg
   xmlns:dc="http://purl.org/dc/elements/1.1/"
   xmlns:cc="http://creativecommons.org/ns#"
   xmlns:rdf="http://www.w3.org/1999/02/22-rdf-syntax-ns#"
   xmlns:svg="http://www.w3.org/2000/svg"
   xmlns="http://www.w3.org/2000/svg"
   xmlns:sodipodi="http://sodipodi.sourceforge.net/DTD/sodipodi-0.dtd"
   xmlns:inkscape="http://www.inkscape.org/namespaces/inkscape"
   id="svg1574"
   version="1.1"
   viewBox="0 0 145.19073 182.73637"
   height="182.73636mm"
   width="145.19072mm"
   sodipodi:docname="Pin_hydropower_color2.svg"
   inkscape:version="0.92.2 (5c3e80d, 2017-08-06)">
  <sodipodi:namedview
     pagecolor="#ffffff"
     bordercolor="#666666"
     borderopacity="1"
     objecttolerance="10"
     gridtolerance="10"
     guidetolerance="10"
     inkscape:pageopacity="0"
     inkscape:pageshadow="2"
     inkscape:window-width="1920"
     inkscape:window-height="1031"
     id="namedview20"
     showgrid="false"
     inkscape:zoom="0.17169352"
     inkscape:cx="606.27584"
     inkscape:cy="385.46139"
     inkscape:window-x="0"
     inkscape:window-y="25"
     inkscape:window-maximized="1"
     inkscape:current-layer="layer1"
     fit-margin-top="0"
     fit-margin-left="0"
     fit-margin-right="0"
     fit-margin-bottom="0"
     inkscape:measure-start="0,0"
     inkscape:measure-end="0,0" />
  <defs
     id="defs1568" />
  <metadata
     id="metadata1571">
    <rdf:RDF>
      <cc:Work
         rdf:about="">
        <dc:format>image/svg+xml</dc:format>
        <dc:type
           rdf:resource="http://purl.org/dc/dcmitype/StillImage" />
        <dc:title></dc:title>
      </cc:Work>
    </rdf:RDF>
  </metadata>
  <g
     transform="translate(90.952506,-54.342298)"
     id="layer1">
    <path
       style="opacity:1;fill:#1e90ff;fill-opacity:1;stroke:none;stroke-width:8.00555611;stroke-linecap:square;stroke-linejoin:miter;stroke-miterlimit:4;stroke-dasharray:none;stroke-dashoffset:0;stroke-opacity:1;paint-order:markers stroke fill"
       d="m 54.238218,127.31138 c 0,40.29973 -72.59536,109.76728 -72.59536,109.76728 0,0 -72.595364,-69.46755 -72.595364,-109.76728 0,-40.299704 32.502054,-72.969083 72.595364,-72.969082 40.093308,-10e-7 72.59536,32.669378 72.59536,72.969082 z"
       id="path6050"
       inkscape:connector-curvature="0" />
    <path
       inkscape:connector-curvature="0"
       style="fill:#ffffff;fill-opacity:1;stroke-width:0.36376885"
       id="shape3-4"
       d="m -18.681454,154.59685 c -0.477151,0.33036 -0.612381,0.95884 -0.279582,1.4332 0.332075,0.47472 0.915279,0.49976 1.447823,0.23609 0,0 3.477752,-0.66002 4.715995,-1.28233 1.188286,-0.59766 5.3921437,1.21957 8.0581641,-0.52949 2.6699859,-1.75084 13.1222408,-16.09011 13.1222408,-16.09011 0.36853,-0.39782 0.442518,-0.87472 0.109304,-1.3487 -0.332779,-0.47399 -0.947334,-0.6176 -1.423046,-0.2865 z" />
    <path
       inkscape:connector-curvature="0"
       style="fill:#ffffff;fill-opacity:1;stroke-width:0.36376885"
       id="shape4-0"
       d="m -18.620781,156.33186 c 0.524446,0.24551 1.136403,0.0481 1.382687,-0.47548 0.246594,-0.52222 -0.02278,-1.03535 -0.516847,-1.36347 0,0 -2.210768,-2.75696 -3.36646,-3.51021 -1.111348,-0.72425 -2.330229,-4.99278 -5.175494,-6.41383 -2.849289,-1.42211 -19.885979,-3.4186 -19.885979,-3.4186 -0.528815,-0.11879 -0.979171,0.0554 -1.223963,0.57979 -0.245529,0.52293 -0.06399,1.12335 0.461248,1.36744 z" />
    <path
       inkscape:connector-curvature="0"
       style="fill:#ffffff;fill-opacity:1;stroke-width:0.36376885"
       id="shape5-5"
       d="m -17.084134,155.46011 c -0.04908,-0.57941 -0.530152,-1.01148 -1.111938,-0.96262 -0.5825,0.0492 -0.895524,0.5411 -0.934703,1.13508 0,0 -1.263516,3.43963 -1.34151,4.82413 -0.07434,1.33057 -3.774024,3.80059 -3.584002,6.99005 0.190747,3.19386 7.571861,19.62136 7.571861,19.62136 0.162936,0.51851 0.542959,0.82264 1.124735,0.77229 0.581785,-0.0507 1.015648,-0.51012 0.965484,-1.0899 z" />
    <path
       inkscape:connector-curvature="0"
       style="fill:#fffffb;fill-opacity:1;stroke-width:0.36376885"
       id="shape6-9"
       d="m 37.859654,106.79026 c -5.456534,0 -10.788647,-2.09052 -13.969444,-5.2964 -3.147696,3.20627 -8.160418,5.2964 -13.9210721,5.2964 -5.822838,0 -10.93925186,-2.09052 -14.1200385,-5.2964 -3.1480688,3.20627 -8.2357304,5.2964 -13.9967474,5.2964 -5.822113,0 -10.977075,-2.09052 -14.158231,-5.2964 -3.147694,3.20627 -8.254283,5.2964 -14.014936,5.2964 -5.822114,0 -11.187711,-2.09052 -14.368872,-5.2964 -3.147685,3.20588 -8.03491,5.2964 -14.218989,5.2964 v -4.82893 c 6.184079,0 10.146251,-3.609008 12.222264,-7.954186 0.601686,-1.259291 2.082951,-5.633727 2.082951,-5.633727 0,0 1.464171,4.366132 2.032384,5.633727 1.765724,3.937328 6.229522,7.954186 12.231354,7.954186 6.000002,0 9.911245,-3.577908 12.034197,-7.954186 0.609316,-1.257117 1.988357,-5.633727 1.988357,-5.633727 0,0 1.351407,4.383485 1.985456,5.633727 2.230996,4.399408 6.206263,7.954186 12.207713,7.954186 6.000011,0 9.895246,-3.565648 12.0218377,-7.954186 0.6096787,-1.257117 1.9825403,-5.633727 1.9825403,-5.633727 0,0 1.3696003,4.377345 1.9829028,5.633727 2.07894384,4.258018 6.2044451,7.954186 12.2062682,7.954186 5.999275,0 9.824664,-3.500901 12.021826,-7.954186 0.618407,-1.254932 1.981816,-5.633727 1.981816,-5.633727 0,0 1.15533,4.380948 1.781368,5.633727 2.134957,4.276818 6.548209,7.954186 12.004743,7.954186 v 4.82893 z" />
    <path
       inkscape:connector-curvature="0"
       style="fill:none;stroke:#ffffff;stroke-width:3.63768816;stroke-linecap:butt;stroke-linejoin:miter;stroke-miterlimit:2;stroke-opacity:1"
       id="shape7-4"
       stroke-miterlimit="2.00000000000"
       d="m 19.320161,155.61128 c 0,-20.67901 -16.7635396,-37.44267 -37.442711,-37.44267 -20.679065,0 -37.442729,16.76366 -37.442729,37.44267 0,20.67917 16.763664,37.44272 37.442729,37.44272 20.6791714,0 37.442711,-16.76355 37.442711,-37.44272" />
  </g>
</svg>
